<svg width="42" height="42" viewBox="0 0 42 42" fill="none" xmlns="http://www.w3.org/2000/svg">
<path d="M8 0.5H34C38.1421 0.5 41.5 3.85786 41.5 8V34C41.5 38.1421 38.1421 41.5 34 41.5H8C3.85786 41.5 0.5 38.1421 0.5 34V8C0.5 3.85786 3.85786 0.5 8 0.5Z" fill="#D3F8DF"/>
<path d="M8 0.5H34C38.1421 0.5 41.5 3.85786 41.5 8V34C41.5 38.1421 38.1421 41.5 34 41.5H8C3.85786 41.5 0.5 38.1421 0.5 34V8C0.5 3.85786 3.85786 0.5 8 0.5Z" stroke="#AAF0C4"/>
<path opacity="0.4" d="M25.0133 24.7966V34.4499L9.01335 34.4766V24.7966L9 22.7966V14.5566C9 13.6633 9.45335 12.8366 10.1867 12.3433L15.52 8.78328C16.4134 8.18328 17.5866 8.18328 18.48 8.78328L23.8133 12.3433C24.56 12.8366 25 13.6633 25 14.5566V22.7966L25.0133 24.7966Z" fill="#16B364"/>
<path d="M34.3333 33.4633H32.64V29.4633C33.9066 29.05 34.8267 27.8633 34.8267 26.4633V23.7967C34.8267 22.05 33.4 20.6233 31.6533 20.6233C29.9067 20.6233 28.48 22.05 28.48 23.7967V26.4633C28.48 27.85 29.3866 29.0233 30.6266 29.45V33.4633H7.66667C7.12001 33.4633 6.66667 33.9167 6.66667 34.4633C6.66667 35.01 7.12001 35.4633 7.66667 35.4633H31.5733C31.6 35.4633 31.6133 35.4767 31.64 35.4767C31.6666 35.4767 31.68 35.4633 31.7067 35.4633H34.3333C34.88 35.4633 35.3333 35.01 35.3333 34.4633C35.3333 33.9167 34.88 33.4633 34.3333 33.4633Z" fill="#16B364"/>
<path d="M25.0133 24.7967H9.01335L9 22.7967H25L25.0133 24.7967Z" fill="#16B364"/>
<path d="M17 35.4633C16.4533 35.4633 16 35.01 16 34.4633V29.4633C16 28.9167 16.4533 28.4633 17 28.4633C17.5467 28.4633 18 28.9167 18 29.4633V34.4633C18 35.01 17.5467 35.4633 17 35.4633Z" fill="#16B364"/>
<path d="M17 19.4633C18.2887 19.4633 19.3333 18.4187 19.3333 17.13C19.3333 15.8413 18.2887 14.7967 17 14.7967C15.7113 14.7967 14.6667 15.8413 14.6667 17.13C14.6667 18.4187 15.7113 19.4633 17 19.4633Z" fill="#16B364"/>
</svg>
