<svg width="23" height="24" viewBox="0 0 23 24" fill="none" xmlns="http://www.w3.org/2000/svg">
<path d="M12.7268 19.2391H19.1214" stroke="black" stroke-width="2" stroke-linecap="round" stroke-linejoin="round"/>
<path fill-rule="evenodd" clip-rule="evenodd" d="M8.24676 4.88477C8.24676 3.51262 7.17282 2.39999 5.84838 2.39999C4.52394 2.39999 3.45 3.51262 3.45 4.88477C3.45 6.25692 4.52394 7.36954 5.84838 7.36954C7.17282 7.36954 8.24676 6.25692 8.24676 4.88477Z" stroke="black" stroke-width="2" stroke-linecap="round" stroke-linejoin="round"/>
<path d="M9.87456 11.81H3.47989" stroke="black" stroke-width="2" stroke-linecap="round" stroke-linejoin="round"/>
<path fill-rule="evenodd" clip-rule="evenodd" d="M8.24676 19.1818C8.24676 17.8096 7.17282 16.697 5.84838 16.697C4.52394 16.697 3.45 17.8096 3.45 19.1818C3.45 20.5539 4.52394 21.6666 5.84838 21.6666C7.17282 21.6666 8.24676 20.5539 8.24676 19.1818Z" stroke="black" stroke-width="2" stroke-linecap="round" stroke-linejoin="round"/>
<path fill-rule="evenodd" clip-rule="evenodd" d="M19.6886 11.7685C19.6886 10.3964 18.6155 9.28374 17.291 9.28374C15.9658 9.28374 14.8918 10.3964 14.8918 11.7685C14.8918 13.1407 15.9658 14.2533 17.291 14.2533C18.6155 14.2533 19.6886 13.1407 19.6886 11.7685Z" stroke="black" stroke-width="2" stroke-linecap="round" stroke-linejoin="round"/>
<path d="M12.7268 4.9421H19.1214" stroke="black" stroke-width="2" stroke-linecap="round" stroke-linejoin="round"/>
</svg>
