<svg width="34" height="34" viewBox="0 0 34 34" fill="none" xmlns="http://www.w3.org/2000/svg">
<g clip-path="url(#clip0_1_685)">
<path d="M17 32.4546C25.5353 32.4546 32.4545 25.5353 32.4545 17C32.4545 8.46471 25.5353 1.54547 17 1.54547C8.46469 1.54547 1.54546 8.46471 1.54546 17C1.54546 25.5353 8.46469 32.4546 17 32.4546Z" fill="#E7EFFF"/>
<path d="M1.23636 6.18182C1.74848 6.18182 2.16364 5.76666 2.16364 5.25454C2.16364 4.74242 1.74848 4.32727 1.23636 4.32727C0.724244 4.32727 0.30909 4.74242 0.30909 5.25454C0.30909 5.76666 0.724244 6.18182 1.23636 6.18182Z" fill="#00C99F"/>
<path d="M30.9091 2.16363C31.4212 2.16363 31.8364 1.74847 31.8364 1.23635C31.8364 0.724236 31.4212 0.309082 30.9091 0.309082C30.397 0.309082 29.9818 0.724236 29.9818 1.23635C29.9818 1.74847 30.397 2.16363 30.9091 2.16363Z" fill="#FFA100"/>
<path d="M32.7636 31.5273C33.2758 31.5273 33.6909 31.1121 33.6909 30.6C33.6909 30.0879 33.2758 29.6727 32.7636 29.6727C32.2515 29.6727 31.8364 30.0879 31.8364 30.6C31.8364 31.1121 32.2515 31.5273 32.7636 31.5273Z" fill="#00C99F"/>
<path d="M2.47273 33.6909C2.98485 33.6909 3.4 33.2758 3.4 32.7636C3.4 32.2515 2.98485 31.8364 2.47273 31.8364C1.96061 31.8364 1.54546 32.2515 1.54546 32.7636C1.54546 33.2758 1.96061 33.6909 2.47273 33.6909Z" fill="#FF4D69"/>
<path d="M27.7904 21.1882L27.7564 21.25C26.0049 24.2871 23.2006 26.5767 19.8745 27.6853C18.448 28.1602 16.9222 28.2543 15.4482 27.9583C13.9741 27.6623 12.6029 26.9865 11.4704 25.9976L10.914 25.5124C10.7097 25.3766 10.4643 25.3167 10.2204 25.3431C9.97649 25.3695 9.74957 25.4806 9.57907 25.657C9.40858 25.8333 9.30528 26.0639 9.28715 26.3085C9.26901 26.5532 9.33719 26.7964 9.47982 26.996L13.0035 31.9291C11.0022 31.3947 9.1297 30.4611 7.49855 29.1844C6.99473 28.3653 6.48473 27.54 6.05509 26.8446C5.73399 26.3209 5.59006 25.7078 5.64462 25.096C5.69918 24.4842 5.94932 23.9062 6.358 23.4476L6.38891 23.4106C6.7035 23.0566 7.10393 22.7896 7.55164 22.6353C7.99934 22.4811 8.47924 22.4447 8.94509 22.5296L10.8182 22.8727L11.3993 22.2916C11.752 21.939 12.2125 21.7143 12.7075 21.6532C13.2026 21.5922 13.7038 21.6983 14.1316 21.9547L15.1455 22.5636C15.7544 21.5489 16.1067 20.4009 16.1716 19.2193L16.2551 17.7171C16.3391 16.2278 16.0844 14.7388 15.5102 13.362L15.5071 13.3589C15.0641 12.2919 14.4363 11.3115 13.6525 10.4627L13.6495 10.4596C12.0181 8.69414 11.053 6.41528 10.9202 4.0151L10.8553 2.81892C11.6558 2.46945 12.4853 2.19022 13.3342 1.98438L13.3682 2.56237C13.5168 5.09282 14.5892 7.48066 16.3818 9.27274L18.5084 7.67783C19.7675 6.73347 21.3502 6.32798 22.9084 6.55057C23.6799 6.66078 24.4221 6.92187 25.0927 7.31894C25.7633 7.71601 26.3491 8.24127 26.8167 8.86474L27.0702 9.20165C28.3515 10.9092 29.1029 12.9557 29.2309 15.0867C29.359 17.2178 28.858 19.3395 27.7904 21.1882Z" fill="#4E6AFF"/>
<path d="M12.6727 16.3818H8.96364C8.62222 16.3818 8.34546 16.6586 8.34546 17C8.34546 17.3414 8.62222 17.6182 8.96364 17.6182H12.6727C13.0141 17.6182 13.2909 17.3414 13.2909 17C13.2909 16.6586 13.0141 16.3818 12.6727 16.3818Z" fill="#A5BCED"/>
<path d="M10.8182 13.9091H8.96364C8.62222 13.9091 8.34546 14.1859 8.34546 14.5273C8.34546 14.8687 8.62222 15.1455 8.96364 15.1455H10.8182C11.1596 15.1455 11.4364 14.8687 11.4364 14.5273C11.4364 14.1859 11.1596 13.9091 10.8182 13.9091Z" fill="#A5BCED"/>
<path d="M16.6949 22.4728L16.9663 21.5909C17.3984 20.1867 17.6182 18.7257 17.6182 17.2565C17.6182 16.4708 17.5134 15.6886 17.3066 14.9306V14.9306C17.1149 14.2276 17.0863 13.4901 17.223 12.7744C17.3596 12.0586 17.6579 11.3835 18.0951 10.8005V10.8005C18.3936 10.4025 18.7514 10.0528 19.1562 9.76355L19.2437 9.70173C20.1889 9.02651 21.3449 8.71274 22.5018 8.81742V8.81742C23.5449 8.91243 24.5292 9.34235 25.3077 10.043C25.9032 10.5788 26.3794 11.2338 26.7054 11.9656C27.0314 12.6973 27.1999 13.4894 27.2 14.2905V14.2905C27.2 16.0826 26.8829 17.8606 26.2635 19.5423L25.8502 20.6636C25.3189 22.1055 24.3823 23.3631 23.1531 24.2853V24.2853C21.9678 25.174 20.5264 25.6545 19.0449 25.6545C18.6115 25.6545 18.1858 25.5399 17.811 25.3223C17.4361 25.1048 17.1254 24.792 16.9104 24.4157V24.4157C16.7435 24.1238 16.6384 23.8007 16.6013 23.4665C16.5643 23.1324 16.5961 22.7941 16.6949 22.4728V22.4728Z" fill="#8FA2FF"/>
<path d="M27.0949 16.0727C27.0609 16.3695 27.0176 16.6631 26.9651 16.9567C26.8065 17.8378 26.5717 18.7034 26.2635 19.5438L25.8493 20.6627C25.3185 22.1046 24.3826 23.3626 23.154 24.2853C21.968 25.1724 20.5272 25.6527 19.0462 25.6546C18.6126 25.6543 18.1867 25.5395 17.8117 25.3219C17.4367 25.1042 17.1257 24.7914 16.9104 24.4151C16.7435 24.1236 16.6381 23.8009 16.6009 23.467C16.5637 23.1331 16.5954 22.7952 16.694 22.474L16.966 21.59C17.5266 19.77 17.7287 17.8585 17.561 15.9615C17.5264 15.6595 17.4561 15.3628 17.3514 15.0775C17.2931 14.8976 17.248 14.7137 17.2164 14.5273H19.2511C20.2039 14.5272 21.1375 14.795 21.9455 15.3V15.3C22.7534 15.805 23.687 16.0728 24.6398 16.0727H27.0949Z" fill="#FFA100"/>
<path d="M24.1091 19.4728C24.4505 19.4728 24.7273 19.196 24.7273 18.8546C24.7273 18.5132 24.4505 18.2364 24.1091 18.2364C23.7677 18.2364 23.4909 18.5132 23.4909 18.8546C23.4909 19.196 23.7677 19.4728 24.1091 19.4728Z" fill="#E7EFFF"/>
<path d="M20.7091 22.5636C21.0505 22.5636 21.3273 22.2869 21.3273 21.9455C21.3273 21.604 21.0505 21.3273 20.7091 21.3273C20.3677 21.3273 20.0909 21.604 20.0909 21.9455C20.0909 22.2869 20.3677 22.5636 20.7091 22.5636Z" fill="#E7EFFF"/>
<path d="M20.0909 17.9273C20.4323 17.9273 20.7091 17.6505 20.7091 17.3091C20.7091 16.9677 20.4323 16.6909 20.0909 16.6909C19.7495 16.6909 19.4727 16.9677 19.4727 17.3091C19.4727 17.6505 19.7495 17.9273 20.0909 17.9273Z" fill="#E7EFFF"/>
</g>
<defs>
<clipPath id="clip0_1_685">
<rect width="34" height="34" fill="white"/>
</clipPath>
</defs>
</svg>
